<mxfile host="app.diagrams.net" agent="Mozilla/5.0 (X11; Ubuntu; Linux x86_64; rv:133.0) Gecko/20100101 Firefox/133.0" version="25.0.3">
  <diagram name="Page-1" id="p4NCYNb3_NzjjV1-u7Jm">
    <mxGraphModel dx="2899" dy="1060" grid="1" gridSize="10" guides="1" tooltips="1" connect="1" arrows="1" fold="1" page="1" pageScale="1" pageWidth="850" pageHeight="1100" math="0" shadow="0">
      <root>
        <mxCell id="0" />
        <mxCell id="1" parent="0" />
        <mxCell id="5w9s_CeRoed2niJQD_rl-25" style="rounded=0;orthogonalLoop=1;jettySize=auto;html=1;endArrow=none;endFill=0;exitX=0;exitY=1;exitDx=0;exitDy=0;entryX=0.4;entryY=-0.002;entryDx=0;entryDy=0;entryPerimeter=0;" edge="1" parent="1" target="5w9s_CeRoed2niJQD_rl-3">
          <mxGeometry relative="1" as="geometry">
            <mxPoint x="254" y="400" as="sourcePoint" />
            <mxPoint x="254" y="650" as="targetPoint" />
          </mxGeometry>
        </mxCell>
        <mxCell id="5w9s_CeRoed2niJQD_rl-29" value="TCP Connection" style="edgeLabel;html=1;align=center;verticalAlign=middle;resizable=0;points=[];" vertex="1" connectable="0" parent="5w9s_CeRoed2niJQD_rl-25">
          <mxGeometry x="0.0147" relative="1" as="geometry">
            <mxPoint as="offset" />
          </mxGeometry>
        </mxCell>
        <mxCell id="5w9s_CeRoed2niJQD_rl-26" style="rounded=0;orthogonalLoop=1;jettySize=auto;html=1;exitX=0.5;exitY=0;exitDx=0;exitDy=0;entryX=0.5;entryY=0;entryDx=0;entryDy=0;" edge="1" parent="1" source="5w9s_CeRoed2niJQD_rl-46" target="5w9s_CeRoed2niJQD_rl-45">
          <mxGeometry relative="1" as="geometry">
            <mxPoint x="344" y="520" as="sourcePoint" />
            <mxPoint x="338" y="590" as="targetPoint" />
          </mxGeometry>
        </mxCell>
        <mxCell id="5w9s_CeRoed2niJQD_rl-30" value="HTTP Request" style="edgeLabel;html=1;align=center;verticalAlign=middle;resizable=0;points=[];" vertex="1" connectable="0" parent="5w9s_CeRoed2niJQD_rl-26">
          <mxGeometry x="-0.0299" y="2" relative="1" as="geometry">
            <mxPoint y="3" as="offset" />
          </mxGeometry>
        </mxCell>
        <mxCell id="5w9s_CeRoed2niJQD_rl-1" value="Operating System" style="swimlane;whiteSpace=wrap;html=1;" vertex="1" parent="1">
          <mxGeometry x="20" y="150" width="520" height="410" as="geometry" />
        </mxCell>
        <mxCell id="5w9s_CeRoed2niJQD_rl-12" value="" style="rounded=0;orthogonalLoop=1;jettySize=auto;html=1;entryX=0.99;entryY=0.307;entryDx=0;entryDy=0;entryPerimeter=0;" edge="1" parent="5w9s_CeRoed2niJQD_rl-1" target="5w9s_CeRoed2niJQD_rl-7">
          <mxGeometry relative="1" as="geometry">
            <mxPoint x="220" y="131" as="sourcePoint" />
            <mxPoint x="138" y="128" as="targetPoint" />
          </mxGeometry>
        </mxCell>
        <mxCell id="5w9s_CeRoed2niJQD_rl-21" style="edgeStyle=orthogonalEdgeStyle;rounded=0;orthogonalLoop=1;jettySize=auto;html=1;" edge="1" parent="5w9s_CeRoed2niJQD_rl-1">
          <mxGeometry relative="1" as="geometry">
            <mxPoint x="540" y="168" as="targetPoint" />
            <mxPoint x="418" y="168" as="sourcePoint" />
          </mxGeometry>
        </mxCell>
        <mxCell id="5w9s_CeRoed2niJQD_rl-4" value="Browser" style="swimlane;whiteSpace=wrap;html=1;" vertex="1" parent="5w9s_CeRoed2niJQD_rl-1">
          <mxGeometry x="218" y="50" width="200" height="200" as="geometry" />
        </mxCell>
        <mxCell id="5w9s_CeRoed2niJQD_rl-9" value="" style="edgeStyle=orthogonalEdgeStyle;rounded=0;orthogonalLoop=1;jettySize=auto;html=1;" edge="1" parent="5w9s_CeRoed2niJQD_rl-4">
          <mxGeometry relative="1" as="geometry">
            <mxPoint x="105" y="58" as="sourcePoint" />
            <mxPoint x="105" y="105" as="targetPoint" />
          </mxGeometry>
        </mxCell>
        <mxCell id="5w9s_CeRoed2niJQD_rl-5" value="http://www.example.com" style="text;html=1;align=center;verticalAlign=middle;resizable=0;points=[];autosize=1;strokeColor=none;fillColor=none;" vertex="1" parent="5w9s_CeRoed2niJQD_rl-4">
          <mxGeometry x="25" y="28" width="150" height="30" as="geometry" />
        </mxCell>
        <mxCell id="5w9s_CeRoed2niJQD_rl-6" value="DNS Cache" style="rounded=0;whiteSpace=wrap;html=1;" vertex="1" parent="5w9s_CeRoed2niJQD_rl-4">
          <mxGeometry x="40" y="105" width="120" height="60" as="geometry" />
        </mxCell>
        <mxCell id="5w9s_CeRoed2niJQD_rl-10" style="edgeStyle=orthogonalEdgeStyle;rounded=0;orthogonalLoop=1;jettySize=auto;html=1;entryX=0.436;entryY=0.975;entryDx=0;entryDy=0;entryPerimeter=0;exitX=0.423;exitY=0.001;exitDx=0;exitDy=0;exitPerimeter=0;" edge="1" parent="5w9s_CeRoed2niJQD_rl-4">
          <mxGeometry relative="1" as="geometry">
            <mxPoint x="100.15999999999994" y="104.99999999999994" as="sourcePoint" />
            <mxPoint x="99.79999999999998" y="57.19" as="targetPoint" />
          </mxGeometry>
        </mxCell>
        <mxCell id="5w9s_CeRoed2niJQD_rl-11" value="Seach IP Address" style="text;html=1;align=center;verticalAlign=middle;resizable=0;points=[];autosize=1;strokeColor=none;fillColor=none;" vertex="1" parent="5w9s_CeRoed2niJQD_rl-4">
          <mxGeometry x="40" y="70" width="120" height="30" as="geometry" />
        </mxCell>
        <mxCell id="5w9s_CeRoed2niJQD_rl-57" value="1" style="ellipse;whiteSpace=wrap;html=1;aspect=fixed;rotation=0;gradientColor=#223548;strokeColor=none;gradientDirection=east;fillColor=#5b738b;rounded=0;pointerEvents=0;fontFamily=Helvetica;fontSize=16;fontColor=#FFFFFF;spacingTop=4;spacingBottom=4;spacingLeft=4;spacingRight=4;points=[];fontStyle=1" vertex="1" parent="5w9s_CeRoed2niJQD_rl-4">
          <mxGeometry x="10" y="75" width="30" height="30" as="geometry" />
        </mxCell>
        <mxCell id="5w9s_CeRoed2niJQD_rl-34" style="rounded=0;orthogonalLoop=1;jettySize=auto;html=1;" edge="1" parent="5w9s_CeRoed2niJQD_rl-1">
          <mxGeometry relative="1" as="geometry">
            <mxPoint x="130" y="156.30769230769226" as="sourcePoint" />
            <mxPoint x="220" y="156" as="targetPoint" />
          </mxGeometry>
        </mxCell>
        <mxCell id="5w9s_CeRoed2niJQD_rl-7" value="DNS Cache" style="rounded=0;whiteSpace=wrap;html=1;" vertex="1" parent="5w9s_CeRoed2niJQD_rl-1">
          <mxGeometry x="20" y="113" width="120" height="60" as="geometry" />
        </mxCell>
        <mxCell id="5w9s_CeRoed2niJQD_rl-14" value="Seach IP Address" style="text;html=1;align=center;verticalAlign=middle;resizable=0;points=[];autosize=1;strokeColor=none;fillColor=none;rotation=-90;" vertex="1" parent="5w9s_CeRoed2niJQD_rl-1">
          <mxGeometry x="120" y="128" width="120" height="30" as="geometry" />
        </mxCell>
        <mxCell id="5w9s_CeRoed2niJQD_rl-23" value="Seach IP Address" style="text;html=1;align=center;verticalAlign=middle;resizable=0;points=[];autosize=1;strokeColor=none;fillColor=none;" vertex="1" parent="5w9s_CeRoed2niJQD_rl-1">
          <mxGeometry x="418" y="173" width="120" height="30" as="geometry" />
        </mxCell>
        <mxCell id="5w9s_CeRoed2niJQD_rl-46" value="&lt;div&gt;Sockect&lt;/div&gt;&lt;div&gt;IP:PORT&lt;br&gt;&lt;/div&gt;" style="rounded=0;whiteSpace=wrap;html=1;" vertex="1" parent="5w9s_CeRoed2niJQD_rl-1">
          <mxGeometry x="220" y="250" width="200" height="60" as="geometry" />
        </mxCell>
        <mxCell id="5w9s_CeRoed2niJQD_rl-58" value="2" style="ellipse;whiteSpace=wrap;html=1;aspect=fixed;rotation=0;gradientColor=#223548;strokeColor=none;gradientDirection=east;fillColor=#5b738b;rounded=0;pointerEvents=0;fontFamily=Helvetica;fontSize=16;fontColor=#FFFFFF;spacingTop=4;spacingBottom=4;spacingLeft=4;spacingRight=4;points=[];fontStyle=1" vertex="1" parent="5w9s_CeRoed2niJQD_rl-1">
          <mxGeometry x="140" y="173" width="30" height="30" as="geometry" />
        </mxCell>
        <mxCell id="5w9s_CeRoed2niJQD_rl-62" value="5" style="ellipse;whiteSpace=wrap;html=1;aspect=fixed;rotation=0;gradientColor=#223548;strokeColor=none;gradientDirection=east;fillColor=#5b738b;rounded=0;pointerEvents=0;fontFamily=Helvetica;fontSize=16;fontColor=#FFFFFF;spacingTop=4;spacingBottom=4;spacingLeft=4;spacingRight=4;points=[];fontStyle=1" vertex="1" parent="5w9s_CeRoed2niJQD_rl-1">
          <mxGeometry x="200" y="340" width="30" height="30" as="geometry" />
        </mxCell>
        <mxCell id="5w9s_CeRoed2niJQD_rl-63" value="6" style="ellipse;whiteSpace=wrap;html=1;aspect=fixed;rotation=0;gradientColor=#223548;strokeColor=none;gradientDirection=east;fillColor=#5b738b;rounded=0;pointerEvents=0;fontFamily=Helvetica;fontSize=16;fontColor=#FFFFFF;spacingTop=4;spacingBottom=4;spacingLeft=4;spacingRight=4;points=[];fontStyle=1" vertex="1" parent="5w9s_CeRoed2niJQD_rl-1">
          <mxGeometry x="320" y="370" width="30" height="30" as="geometry" />
        </mxCell>
        <mxCell id="5w9s_CeRoed2niJQD_rl-69" value="10" style="ellipse;whiteSpace=wrap;html=1;aspect=fixed;rotation=0;gradientColor=#223548;strokeColor=none;gradientDirection=east;fillColor=#5b738b;rounded=0;pointerEvents=0;fontFamily=Helvetica;fontSize=16;fontColor=#FFFFFF;spacingTop=4;spacingBottom=4;spacingLeft=4;spacingRight=4;points=[];fontStyle=1" vertex="1" parent="5w9s_CeRoed2niJQD_rl-1">
          <mxGeometry x="418" y="340" width="30" height="30" as="geometry" />
        </mxCell>
        <mxCell id="5w9s_CeRoed2niJQD_rl-22" style="rounded=0;orthogonalLoop=1;jettySize=auto;html=1;" edge="1" parent="1">
          <mxGeometry relative="1" as="geometry">
            <mxPoint x="440" y="345" as="targetPoint" />
            <mxPoint x="560" y="345" as="sourcePoint" />
          </mxGeometry>
        </mxCell>
        <mxCell id="5w9s_CeRoed2niJQD_rl-2" value="ISP" style="swimlane;whiteSpace=wrap;html=1;startSize=23;" vertex="1" parent="1">
          <mxGeometry x="560" y="150" width="400" height="370" as="geometry" />
        </mxCell>
        <mxCell id="5w9s_CeRoed2niJQD_rl-15" value="DNS Cache" style="rounded=0;whiteSpace=wrap;html=1;" vertex="1" parent="5w9s_CeRoed2niJQD_rl-2">
          <mxGeometry x="140" y="50" width="120" height="60" as="geometry" />
        </mxCell>
        <mxCell id="5w9s_CeRoed2niJQD_rl-16" value="DNS Resolver" style="rounded=0;whiteSpace=wrap;html=1;" vertex="1" parent="5w9s_CeRoed2niJQD_rl-2">
          <mxGeometry x="140" y="170" width="120" height="60" as="geometry" />
        </mxCell>
        <mxCell id="5w9s_CeRoed2niJQD_rl-60" value="4" style="ellipse;whiteSpace=wrap;html=1;aspect=fixed;rotation=0;gradientColor=#223548;strokeColor=none;gradientDirection=east;fillColor=#5b738b;rounded=0;pointerEvents=0;fontFamily=Helvetica;fontSize=16;fontColor=#FFFFFF;spacingTop=4;spacingBottom=4;spacingLeft=4;spacingRight=4;points=[];fontStyle=1" vertex="1" parent="5w9s_CeRoed2niJQD_rl-2">
          <mxGeometry x="330" y="210" width="30" height="30" as="geometry" />
        </mxCell>
        <mxCell id="5w9s_CeRoed2niJQD_rl-59" value="3" style="ellipse;whiteSpace=wrap;html=1;aspect=fixed;rotation=0;gradientColor=#223548;strokeColor=none;gradientDirection=east;fillColor=#5b738b;rounded=0;pointerEvents=0;fontFamily=Helvetica;fontSize=16;fontColor=#FFFFFF;spacingTop=4;spacingBottom=4;spacingLeft=4;spacingRight=4;points=[];fontStyle=1" vertex="1" parent="5w9s_CeRoed2niJQD_rl-2">
          <mxGeometry x="100" y="65" width="30" height="30" as="geometry" />
        </mxCell>
        <mxCell id="5w9s_CeRoed2niJQD_rl-27" style="rounded=0;orthogonalLoop=1;jettySize=auto;html=1;exitX=0.893;exitY=0.929;exitDx=0;exitDy=0;exitPerimeter=0;entryX=0.926;entryY=0.952;entryDx=0;entryDy=0;entryPerimeter=0;" edge="1" parent="1" source="5w9s_CeRoed2niJQD_rl-45" target="5w9s_CeRoed2niJQD_rl-46">
          <mxGeometry relative="1" as="geometry">
            <mxPoint x="430" y="470" as="targetPoint" />
            <mxPoint x="431.1200000000001" y="638.7999999999997" as="sourcePoint" />
          </mxGeometry>
        </mxCell>
        <mxCell id="5w9s_CeRoed2niJQD_rl-31" value="HTTP Response" style="edgeLabel;html=1;align=center;verticalAlign=middle;resizable=0;points=[];" vertex="1" connectable="0" parent="5w9s_CeRoed2niJQD_rl-27">
          <mxGeometry x="-0.0292" y="1" relative="1" as="geometry">
            <mxPoint y="-26" as="offset" />
          </mxGeometry>
        </mxCell>
        <mxCell id="5w9s_CeRoed2niJQD_rl-3" value="Host" style="swimlane;whiteSpace=wrap;html=1;startSize=23;" vertex="1" parent="1">
          <mxGeometry x="-140" y="660" width="990" height="640" as="geometry" />
        </mxCell>
        <mxCell id="5w9s_CeRoed2niJQD_rl-54" style="edgeStyle=orthogonalEdgeStyle;rounded=0;orthogonalLoop=1;jettySize=auto;html=1;startArrow=classic;startFill=1;endArrow=none;endFill=0;" edge="1" parent="5w9s_CeRoed2niJQD_rl-3" source="5w9s_CeRoed2niJQD_rl-32">
          <mxGeometry relative="1" as="geometry">
            <mxPoint x="840" y="170.00000000000023" as="targetPoint" />
          </mxGeometry>
        </mxCell>
        <mxCell id="5w9s_CeRoed2niJQD_rl-55" value="HTTP Response" style="edgeLabel;html=1;align=center;verticalAlign=middle;resizable=0;points=[];" vertex="1" connectable="0" parent="5w9s_CeRoed2niJQD_rl-54">
          <mxGeometry x="-0.2287" relative="1" as="geometry">
            <mxPoint as="offset" />
          </mxGeometry>
        </mxCell>
        <mxCell id="5w9s_CeRoed2niJQD_rl-32" value="Web Server" style="rounded=0;whiteSpace=wrap;html=1;" vertex="1" parent="5w9s_CeRoed2niJQD_rl-3">
          <mxGeometry x="420" y="60" width="120" height="60" as="geometry" />
        </mxCell>
        <mxCell id="5w9s_CeRoed2niJQD_rl-52" style="edgeStyle=orthogonalEdgeStyle;rounded=0;orthogonalLoop=1;jettySize=auto;html=1;entryX=0.5;entryY=1;entryDx=0;entryDy=0;startArrow=classic;startFill=1;endArrow=none;endFill=0;" edge="1" parent="5w9s_CeRoed2niJQD_rl-3" source="5w9s_CeRoed2niJQD_rl-36" target="5w9s_CeRoed2niJQD_rl-32">
          <mxGeometry relative="1" as="geometry">
            <mxPoint x="500" y="130.00000000000023" as="targetPoint" />
          </mxGeometry>
        </mxCell>
        <mxCell id="5w9s_CeRoed2niJQD_rl-53" value="Reverse Proxy Request" style="edgeLabel;html=1;align=center;verticalAlign=middle;resizable=0;points=[];" vertex="1" connectable="0" parent="5w9s_CeRoed2niJQD_rl-52">
          <mxGeometry x="0.2721" y="-1" relative="1" as="geometry">
            <mxPoint as="offset" />
          </mxGeometry>
        </mxCell>
        <mxCell id="5w9s_CeRoed2niJQD_rl-36" value="Application Server" style="swimlane;whiteSpace=wrap;html=1;startSize=23;" vertex="1" parent="5w9s_CeRoed2niJQD_rl-3">
          <mxGeometry x="490" y="180" width="470" height="400" as="geometry" />
        </mxCell>
        <mxCell id="5w9s_CeRoed2niJQD_rl-51" value="" style="edgeStyle=orthogonalEdgeStyle;rounded=0;orthogonalLoop=1;jettySize=auto;html=1;" edge="1" parent="5w9s_CeRoed2niJQD_rl-36" source="5w9s_CeRoed2niJQD_rl-39" target="5w9s_CeRoed2niJQD_rl-40">
          <mxGeometry relative="1" as="geometry" />
        </mxCell>
        <mxCell id="5w9s_CeRoed2niJQD_rl-39" value="Route" style="rounded=0;whiteSpace=wrap;html=1;" vertex="1" parent="5w9s_CeRoed2niJQD_rl-36">
          <mxGeometry x="175" y="40" width="120" height="60" as="geometry" />
        </mxCell>
        <mxCell id="5w9s_CeRoed2niJQD_rl-40" value="Controller" style="rounded=0;whiteSpace=wrap;html=1;" vertex="1" parent="5w9s_CeRoed2niJQD_rl-36">
          <mxGeometry x="175" y="160" width="120" height="60" as="geometry" />
        </mxCell>
        <mxCell id="5w9s_CeRoed2niJQD_rl-50" value="" style="rounded=0;orthogonalLoop=1;jettySize=auto;html=1;exitX=0;exitY=0.5;exitDx=0;exitDy=0;" edge="1" parent="5w9s_CeRoed2niJQD_rl-36" source="5w9s_CeRoed2niJQD_rl-41" target="5w9s_CeRoed2niJQD_rl-40">
          <mxGeometry relative="1" as="geometry" />
        </mxCell>
        <mxCell id="5w9s_CeRoed2niJQD_rl-41" value="Views" style="rounded=0;whiteSpace=wrap;html=1;" vertex="1" parent="5w9s_CeRoed2niJQD_rl-36">
          <mxGeometry x="340" y="162" width="120" height="60" as="geometry" />
        </mxCell>
        <mxCell id="5w9s_CeRoed2niJQD_rl-49" value="" style="rounded=0;orthogonalLoop=1;jettySize=auto;html=1;" edge="1" parent="5w9s_CeRoed2niJQD_rl-36" source="5w9s_CeRoed2niJQD_rl-42" target="5w9s_CeRoed2niJQD_rl-40">
          <mxGeometry relative="1" as="geometry" />
        </mxCell>
        <mxCell id="5w9s_CeRoed2niJQD_rl-42" value="Model" style="rounded=0;whiteSpace=wrap;html=1;" vertex="1" parent="5w9s_CeRoed2niJQD_rl-36">
          <mxGeometry x="12" y="162" width="120" height="60" as="geometry" />
        </mxCell>
        <mxCell id="5w9s_CeRoed2niJQD_rl-48" value="" style="edgeStyle=orthogonalEdgeStyle;rounded=0;orthogonalLoop=1;jettySize=auto;html=1;" edge="1" parent="5w9s_CeRoed2niJQD_rl-36" source="5w9s_CeRoed2niJQD_rl-43" target="5w9s_CeRoed2niJQD_rl-42">
          <mxGeometry relative="1" as="geometry" />
        </mxCell>
        <mxCell id="5w9s_CeRoed2niJQD_rl-43" value="Database" style="rounded=0;whiteSpace=wrap;html=1;" vertex="1" parent="5w9s_CeRoed2niJQD_rl-36">
          <mxGeometry x="12" y="260" width="120" height="60" as="geometry" />
        </mxCell>
        <mxCell id="5w9s_CeRoed2niJQD_rl-47" style="edgeStyle=orthogonalEdgeStyle;rounded=0;orthogonalLoop=1;jettySize=auto;html=1;entryX=0.25;entryY=1;entryDx=0;entryDy=0;" edge="1" parent="5w9s_CeRoed2niJQD_rl-3" source="5w9s_CeRoed2niJQD_rl-37" target="5w9s_CeRoed2niJQD_rl-32">
          <mxGeometry relative="1" as="geometry" />
        </mxCell>
        <mxCell id="5w9s_CeRoed2niJQD_rl-37" value="Public Assets" style="rounded=0;whiteSpace=wrap;html=1;" vertex="1" parent="5w9s_CeRoed2niJQD_rl-3">
          <mxGeometry x="330" y="180" width="120" height="60" as="geometry" />
        </mxCell>
        <mxCell id="5w9s_CeRoed2niJQD_rl-64" value="7" style="ellipse;whiteSpace=wrap;html=1;aspect=fixed;rotation=0;gradientColor=#223548;strokeColor=none;gradientDirection=east;fillColor=#5b738b;rounded=0;pointerEvents=0;fontFamily=Helvetica;fontSize=16;fontColor=#FFFFFF;spacingTop=4;spacingBottom=4;spacingLeft=4;spacingRight=4;points=[];fontStyle=1" vertex="1" parent="5w9s_CeRoed2niJQD_rl-3">
          <mxGeometry x="290" y="160" width="30" height="30" as="geometry" />
        </mxCell>
        <mxCell id="5w9s_CeRoed2niJQD_rl-67" value="9" style="ellipse;whiteSpace=wrap;html=1;aspect=fixed;rotation=0;gradientColor=#223548;strokeColor=none;gradientDirection=east;fillColor=#5b738b;rounded=0;pointerEvents=0;fontFamily=Helvetica;fontSize=16;fontColor=#FFFFFF;spacingTop=4;spacingBottom=4;spacingLeft=4;spacingRight=4;points=[];fontStyle=1" vertex="1" parent="5w9s_CeRoed2niJQD_rl-3">
          <mxGeometry x="660" y="50" width="30" height="30" as="geometry" />
        </mxCell>
        <mxCell id="5w9s_CeRoed2niJQD_rl-68" value="8" style="ellipse;whiteSpace=wrap;html=1;aspect=fixed;rotation=0;gradientColor=#223548;strokeColor=none;gradientDirection=east;fillColor=#5b738b;rounded=0;pointerEvents=0;fontFamily=Helvetica;fontSize=16;fontColor=#FFFFFF;spacingTop=4;spacingBottom=4;spacingLeft=4;spacingRight=4;points=[];fontStyle=1" vertex="1" parent="5w9s_CeRoed2niJQD_rl-3">
          <mxGeometry x="670" y="120" width="30" height="30" as="geometry" />
        </mxCell>
        <mxCell id="5w9s_CeRoed2niJQD_rl-19" style="edgeStyle=orthogonalEdgeStyle;rounded=0;orthogonalLoop=1;jettySize=auto;html=1;" edge="1" parent="1" source="5w9s_CeRoed2niJQD_rl-17" target="5w9s_CeRoed2niJQD_rl-16">
          <mxGeometry relative="1" as="geometry">
            <Array as="points">
              <mxPoint x="1000" y="340" />
              <mxPoint x="1000" y="340" />
            </Array>
          </mxGeometry>
        </mxCell>
        <mxCell id="5w9s_CeRoed2niJQD_rl-17" value="DNS Server" style="rounded=0;whiteSpace=wrap;html=1;" vertex="1" parent="1">
          <mxGeometry x="1040" y="320" width="120" height="60" as="geometry" />
        </mxCell>
        <mxCell id="5w9s_CeRoed2niJQD_rl-18" style="rounded=0;orthogonalLoop=1;jettySize=auto;html=1;entryX=0;entryY=0.5;entryDx=0;entryDy=0;" edge="1" parent="1" source="5w9s_CeRoed2niJQD_rl-16" target="5w9s_CeRoed2niJQD_rl-17">
          <mxGeometry relative="1" as="geometry" />
        </mxCell>
        <mxCell id="5w9s_CeRoed2niJQD_rl-20" value="Recursive DNS Query" style="text;html=1;align=center;verticalAlign=middle;resizable=0;points=[];autosize=1;strokeColor=none;fillColor=none;" vertex="1" parent="1">
          <mxGeometry x="861" y="318" width="140" height="30" as="geometry" />
        </mxCell>
        <mxCell id="5w9s_CeRoed2niJQD_rl-45" value="&lt;div&gt;Sockect&lt;/div&gt;&lt;div&gt;IP:PORT&lt;br&gt;&lt;/div&gt;" style="rounded=0;whiteSpace=wrap;html=1;" vertex="1" parent="1">
          <mxGeometry x="220" y="600" width="230" height="60" as="geometry" />
        </mxCell>
      </root>
    </mxGraphModel>
  </diagram>
</mxfile>
